<mxfile host="Electron" agent="Mozilla/5.0 (X11; Linux x86_64) AppleWebKit/537.36 (KHTML, like Gecko) draw.io/26.0.9 Chrome/128.0.6613.186 Electron/32.3.1 Safari/537.36" version="26.0.9">
  <diagram name="Page-1" id="YHBKYviWMnUJeCqdUI6N">
    <mxGraphModel dx="1207" dy="844" grid="1" gridSize="10" guides="1" tooltips="1" connect="1" arrows="1" fold="1" page="1" pageScale="1" pageWidth="1600" pageHeight="900" math="0" shadow="0" adaptiveColors="none">
      <root>
        <mxCell id="0" />
        <mxCell id="1" parent="0" />
        <mxCell id="Kli5g-zVKuXx6SAsKVRO-47" value="" style="group;labelBackgroundColor=none;fontColor=#143642;sketch=1;curveFitting=1;jiggle=2;" parent="1" vertex="1" connectable="0">
          <mxGeometry x="80" y="40" width="250" height="540" as="geometry" />
        </mxCell>
        <mxCell id="Kli5g-zVKuXx6SAsKVRO-45" value="" style="rounded=0;whiteSpace=wrap;html=1;shadow=0;dashed=0;strokeColor=#0F8B8D;strokeWidth=2;align=center;verticalAlign=top;fontFamily=Helvetica;fontSize=12;fontColor=#143642;fillColor=#FAE5C7;labelBackgroundColor=none;sketch=1;curveFitting=1;jiggle=2;" parent="Kli5g-zVKuXx6SAsKVRO-47" vertex="1">
          <mxGeometry width="190" height="540" as="geometry" />
        </mxCell>
        <mxCell id="Kli5g-zVKuXx6SAsKVRO-46" value="&lt;h1&gt;&lt;font&gt;Sidebar&lt;/font&gt;&lt;/h1&gt;" style="rounded=1;whiteSpace=wrap;html=1;shadow=0;dashed=0;strokeColor=#82b366;strokeWidth=1;align=center;verticalAlign=middle;fontFamily=Architects Daughter;fontSize=21;fillColor=#d5e8d4;labelBackgroundColor=none;sketch=1;curveFitting=1;jiggle=2;hachureGap=4;spacingLeft=4;spacingTop=-2;spacing=2;arcSize=20;fontSource=https%3A%2F%2Ffonts.googleapis.com%2Fcss%3Ffamily%3DArchitects%2BDaughter;fontStyle=1;autosize=1;" parent="Kli5g-zVKuXx6SAsKVRO-47" vertex="1">
          <mxGeometry width="190" height="90" as="geometry" />
        </mxCell>
        <mxCell id="Kli5g-zVKuXx6SAsKVRO-9" value="" style="swimlane;fontStyle=0;childLayout=stackLayout;horizontal=1;startSize=0;horizontalStack=0;resizeParent=1;resizeParentMax=0;resizeLast=0;collapsible=0;marginBottom=0;whiteSpace=wrap;html=1;strokeColor=none;fillColor=none;shadow=0;dashed=0;strokeWidth=2;align=center;verticalAlign=top;fontFamily=Helvetica;fontSize=12;fontColor=#143642;labelBackgroundColor=none;sketch=1;curveFitting=1;jiggle=2;movable=1;resizable=1;rotatable=1;deletable=1;editable=1;locked=0;connectable=1;" parent="Kli5g-zVKuXx6SAsKVRO-47" vertex="1">
          <mxGeometry x="10" y="150" width="170" height="360" as="geometry" />
        </mxCell>
        <mxCell id="Kli5g-zVKuXx6SAsKVRO-14" value="&lt;b&gt;Create New&lt;/b&gt;" style="text;strokeColor=#b46504;fillColor=#fad7ac;align=left;verticalAlign=middle;spacingLeft=50;spacingRight=10;overflow=hidden;points=[[0,0.5],[1,0.5]];portConstraint=eastwest;rotatable=0;whiteSpace=wrap;html=1;rSize=5;fontFamily=Architects Daughter;fontSize=14;labelBackgroundColor=none;sketch=1;curveFitting=1;jiggle=2;fontSource=https%3A%2F%2Ffonts.googleapis.com%2Fcss%3Ffamily%3DArchitects%2BDaughter;fontStyle=0;autosize=1;strokeWidth=2;" parent="Kli5g-zVKuXx6SAsKVRO-9" vertex="1">
          <mxGeometry width="170" height="40" as="geometry" />
        </mxCell>
        <mxCell id="Kli5g-zVKuXx6SAsKVRO-10" value="Profile 1" style="text;strokeColor=#0F8B8D;fillColor=#FAE5C7;align=left;verticalAlign=middle;spacingLeft=50;spacingRight=10;overflow=hidden;points=[[0,0.5],[1,0.5]];portConstraint=eastwest;rotatable=0;whiteSpace=wrap;html=1;shape=mxgraph.bootstrap.topButton;rSize=5;fontColor=default;fontFamily=Architects Daughter;fontSize=14;labelBackgroundColor=none;sketch=1;curveFitting=1;jiggle=2;fontSource=https%3A%2F%2Ffonts.googleapis.com%2Fcss%3Ffamily%3DArchitects%2BDaughter;fontStyle=0;autosize=1;" parent="Kli5g-zVKuXx6SAsKVRO-9" vertex="1">
          <mxGeometry y="40" width="170" height="40" as="geometry" />
        </mxCell>
        <mxCell id="Kli5g-zVKuXx6SAsKVRO-11" value="Profile 2" style="text;strokeColor=#0F8B8D;fillColor=#FAE5C7;align=left;verticalAlign=middle;spacingLeft=50;spacingRight=10;overflow=hidden;points=[[0,0.5],[1,0.5]];portConstraint=eastwest;rotatable=0;whiteSpace=wrap;html=1;rSize=5;fontColor=default;fontFamily=Architects Daughter;fontSize=14;labelBackgroundColor=none;sketch=1;curveFitting=1;jiggle=2;fontSource=https%3A%2F%2Ffonts.googleapis.com%2Fcss%3Ffamily%3DArchitects%2BDaughter;fontStyle=0;autosize=1;" parent="Kli5g-zVKuXx6SAsKVRO-9" vertex="1">
          <mxGeometry y="80" width="170" height="40" as="geometry" />
        </mxCell>
        <mxCell id="Kli5g-zVKuXx6SAsKVRO-12" value="Profile 3" style="text;strokeColor=#0F8B8D;fillColor=#FAE5C7;align=left;verticalAlign=middle;spacingLeft=50;spacingRight=10;overflow=hidden;points=[[0,0.5],[1,0.5]];portConstraint=eastwest;rotatable=0;whiteSpace=wrap;html=1;rSize=5;fontColor=default;fontFamily=Architects Daughter;fontSize=14;labelBackgroundColor=none;sketch=1;curveFitting=1;jiggle=2;fontSource=https%3A%2F%2Ffonts.googleapis.com%2Fcss%3Ffamily%3DArchitects%2BDaughter;fontStyle=0;autosize=1;" parent="Kli5g-zVKuXx6SAsKVRO-9" vertex="1">
          <mxGeometry y="120" width="170" height="40" as="geometry" />
        </mxCell>
        <mxCell id="Kli5g-zVKuXx6SAsKVRO-16" value="Profile 4" style="text;strokeColor=#0F8B8D;fillColor=#FAE5C7;align=left;verticalAlign=middle;spacingLeft=50;spacingRight=10;overflow=hidden;points=[[0,0.5],[1,0.5]];portConstraint=eastwest;rotatable=0;whiteSpace=wrap;html=1;rSize=5;fontColor=default;fontFamily=Architects Daughter;fontSize=14;labelBackgroundColor=none;sketch=1;curveFitting=1;jiggle=2;fontSource=https%3A%2F%2Ffonts.googleapis.com%2Fcss%3Ffamily%3DArchitects%2BDaughter;fontStyle=0;autosize=1;" parent="Kli5g-zVKuXx6SAsKVRO-9" vertex="1">
          <mxGeometry y="160" width="170" height="40" as="geometry" />
        </mxCell>
        <mxCell id="Kli5g-zVKuXx6SAsKVRO-17" value="Profile 5" style="text;strokeColor=#0F8B8D;fillColor=#FAE5C7;align=left;verticalAlign=middle;spacingLeft=50;spacingRight=10;overflow=hidden;points=[[0,0.5],[1,0.5]];portConstraint=eastwest;rotatable=0;whiteSpace=wrap;html=1;rSize=5;fontColor=default;fontFamily=Architects Daughter;fontSize=14;labelBackgroundColor=none;sketch=1;curveFitting=1;jiggle=2;fontSource=https%3A%2F%2Ffonts.googleapis.com%2Fcss%3Ffamily%3DArchitects%2BDaughter;fontStyle=0;autosize=1;" parent="Kli5g-zVKuXx6SAsKVRO-9" vertex="1">
          <mxGeometry y="200" width="170" height="40" as="geometry" />
        </mxCell>
        <mxCell id="Kli5g-zVKuXx6SAsKVRO-18" value="Profile 6" style="text;strokeColor=#0F8B8D;fillColor=#FAE5C7;align=left;verticalAlign=middle;spacingLeft=50;spacingRight=10;overflow=hidden;points=[[0,0.5],[1,0.5]];portConstraint=eastwest;rotatable=0;whiteSpace=wrap;html=1;rSize=5;fontColor=default;fontFamily=Architects Daughter;fontSize=14;labelBackgroundColor=none;sketch=1;curveFitting=1;jiggle=2;fontSource=https%3A%2F%2Ffonts.googleapis.com%2Fcss%3Ffamily%3DArchitects%2BDaughter;fontStyle=0;autosize=1;" parent="Kli5g-zVKuXx6SAsKVRO-9" vertex="1">
          <mxGeometry y="240" width="170" height="40" as="geometry" />
        </mxCell>
        <mxCell id="Kli5g-zVKuXx6SAsKVRO-15" value="Profile 7" style="text;strokeColor=#0F8B8D;fillColor=#FAE5C7;align=left;verticalAlign=middle;spacingLeft=50;spacingRight=10;overflow=hidden;points=[[0,0.5],[1,0.5]];portConstraint=eastwest;rotatable=0;whiteSpace=wrap;html=1;rSize=5;fontColor=default;fontFamily=Architects Daughter;fontSize=14;labelBackgroundColor=none;sketch=1;curveFitting=1;jiggle=2;fontSource=https%3A%2F%2Ffonts.googleapis.com%2Fcss%3Ffamily%3DArchitects%2BDaughter;fontStyle=0;autosize=1;" parent="Kli5g-zVKuXx6SAsKVRO-9" vertex="1">
          <mxGeometry y="280" width="170" height="40" as="geometry" />
        </mxCell>
        <mxCell id="Kli5g-zVKuXx6SAsKVRO-13" value="Profile 8" style="text;strokeColor=#0F8B8D;fillColor=#FAE5C7;align=left;verticalAlign=middle;spacingLeft=50;spacingRight=10;overflow=hidden;points=[[0,0.5],[1,0.5]];portConstraint=eastwest;rotatable=0;whiteSpace=wrap;html=1;shape=mxgraph.bootstrap.bottomButton;rSize=5;fontColor=default;fontFamily=Architects Daughter;fontSize=14;labelBackgroundColor=none;sketch=1;curveFitting=1;jiggle=2;fontSource=https%3A%2F%2Ffonts.googleapis.com%2Fcss%3Ffamily%3DArchitects%2BDaughter;fontStyle=0;autosize=1;" parent="Kli5g-zVKuXx6SAsKVRO-9" vertex="1">
          <mxGeometry y="320" width="170" height="40" as="geometry" />
        </mxCell>
        <mxCell id="Kli5g-zVKuXx6SAsKVRO-76" value="" style="shape=ellipse;dashed=0;strokeColor=none;shadow=1;fontSize=13;align=center;verticalAlign=top;labelPosition=center;verticalLabelPosition=bottom;html=1;aspect=fixed;sketch=1;hachureGap=4;jiggle=2;curveFitting=1;fontFamily=Architects Daughter;fontSource=https%3A%2F%2Ffonts.googleapis.com%2Fcss%3Ffamily%3DArchitects%2BDaughter;labelBackgroundColor=none;fillColor=#FAE5C7;fontColor=#143642;" parent="Kli5g-zVKuXx6SAsKVRO-47" vertex="1">
          <mxGeometry x="10" y="190" width="40" height="40" as="geometry" />
        </mxCell>
        <mxCell id="Kli5g-zVKuXx6SAsKVRO-77" value="" style="dashed=0;html=1;shape=mxgraph.gmdl.users;strokeColor=#0F8B8D;fillColor=#FAE5C7;strokeWidth=2;shadow=0;sketch=0;html=1;labelPosition=center;verticalLabelPosition=bottom;align=center;verticalAlign=top;hachureGap=4;jiggle=2;curveFitting=1;fontFamily=Architects Daughter;fontSource=https%3A%2F%2Ffonts.googleapis.com%2Fcss%3Ffamily%3DArchitects%2BDaughter;labelBackgroundColor=none;fontColor=#143642;" parent="Kli5g-zVKuXx6SAsKVRO-76" vertex="1">
          <mxGeometry x="12.857142857142856" y="14.285714285714285" width="17.142857142857142" height="11.428571428571427" as="geometry" />
        </mxCell>
        <mxCell id="Kli5g-zVKuXx6SAsKVRO-80" value="" style="shape=ellipse;dashed=0;strokeColor=none;shadow=1;fontSize=13;align=center;verticalAlign=top;labelPosition=center;verticalLabelPosition=bottom;html=1;aspect=fixed;sketch=1;hachureGap=4;jiggle=2;curveFitting=1;fontFamily=Architects Daughter;fontSource=https%3A%2F%2Ffonts.googleapis.com%2Fcss%3Ffamily%3DArchitects%2BDaughter;labelBackgroundColor=none;fillColor=#FAE5C7;fontColor=#143642;" parent="Kli5g-zVKuXx6SAsKVRO-47" vertex="1">
          <mxGeometry x="10" y="230" width="40" height="40" as="geometry" />
        </mxCell>
        <mxCell id="Kli5g-zVKuXx6SAsKVRO-81" value="" style="dashed=0;html=1;shape=mxgraph.gmdl.users;strokeColor=#0F8B8D;fillColor=#FAE5C7;strokeWidth=2;shadow=0;sketch=0;html=1;labelPosition=center;verticalLabelPosition=bottom;align=center;verticalAlign=top;hachureGap=4;jiggle=2;curveFitting=1;fontFamily=Architects Daughter;fontSource=https%3A%2F%2Ffonts.googleapis.com%2Fcss%3Ffamily%3DArchitects%2BDaughter;labelBackgroundColor=none;fontColor=#143642;" parent="Kli5g-zVKuXx6SAsKVRO-80" vertex="1">
          <mxGeometry x="12.857142857142856" y="14.285714285714285" width="17.142857142857142" height="11.428571428571427" as="geometry" />
        </mxCell>
        <mxCell id="Kli5g-zVKuXx6SAsKVRO-82" value="" style="shape=ellipse;dashed=0;strokeColor=none;shadow=1;fontSize=13;align=center;verticalAlign=top;labelPosition=center;verticalLabelPosition=bottom;html=1;aspect=fixed;sketch=1;hachureGap=4;jiggle=2;curveFitting=1;fontFamily=Architects Daughter;fontSource=https%3A%2F%2Ffonts.googleapis.com%2Fcss%3Ffamily%3DArchitects%2BDaughter;labelBackgroundColor=none;fillColor=#FAE5C7;fontColor=#143642;" parent="Kli5g-zVKuXx6SAsKVRO-47" vertex="1">
          <mxGeometry x="10" y="270" width="40" height="40" as="geometry" />
        </mxCell>
        <mxCell id="Kli5g-zVKuXx6SAsKVRO-83" value="" style="dashed=0;html=1;shape=mxgraph.gmdl.users;strokeColor=#0F8B8D;fillColor=#FAE5C7;strokeWidth=2;shadow=0;sketch=0;html=1;labelPosition=center;verticalLabelPosition=bottom;align=center;verticalAlign=top;hachureGap=4;jiggle=2;curveFitting=1;fontFamily=Architects Daughter;fontSource=https%3A%2F%2Ffonts.googleapis.com%2Fcss%3Ffamily%3DArchitects%2BDaughter;labelBackgroundColor=none;fontColor=#143642;" parent="Kli5g-zVKuXx6SAsKVRO-82" vertex="1">
          <mxGeometry x="12.857142857142856" y="14.285714285714285" width="17.142857142857142" height="11.428571428571427" as="geometry" />
        </mxCell>
        <mxCell id="Kli5g-zVKuXx6SAsKVRO-84" value="" style="shape=ellipse;dashed=0;strokeColor=none;shadow=1;fontSize=13;align=center;verticalAlign=top;labelPosition=center;verticalLabelPosition=bottom;html=1;aspect=fixed;sketch=1;hachureGap=4;jiggle=2;curveFitting=1;fontFamily=Architects Daughter;fontSource=https%3A%2F%2Ffonts.googleapis.com%2Fcss%3Ffamily%3DArchitects%2BDaughter;labelBackgroundColor=none;fillColor=#FAE5C7;fontColor=#143642;" parent="Kli5g-zVKuXx6SAsKVRO-47" vertex="1">
          <mxGeometry x="10" y="310" width="40" height="40" as="geometry" />
        </mxCell>
        <mxCell id="Kli5g-zVKuXx6SAsKVRO-85" value="" style="dashed=0;html=1;shape=mxgraph.gmdl.users;strokeColor=#0F8B8D;fillColor=#FAE5C7;strokeWidth=2;shadow=0;sketch=0;html=1;labelPosition=center;verticalLabelPosition=bottom;align=center;verticalAlign=top;hachureGap=4;jiggle=2;curveFitting=1;fontFamily=Architects Daughter;fontSource=https%3A%2F%2Ffonts.googleapis.com%2Fcss%3Ffamily%3DArchitects%2BDaughter;labelBackgroundColor=none;fontColor=#143642;" parent="Kli5g-zVKuXx6SAsKVRO-84" vertex="1">
          <mxGeometry x="12.857142857142856" y="14.285714285714285" width="17.142857142857142" height="11.428571428571427" as="geometry" />
        </mxCell>
        <mxCell id="Kli5g-zVKuXx6SAsKVRO-86" value="" style="shape=ellipse;dashed=0;strokeColor=none;shadow=1;fontSize=13;align=center;verticalAlign=top;labelPosition=center;verticalLabelPosition=bottom;html=1;aspect=fixed;sketch=1;hachureGap=4;jiggle=2;curveFitting=1;fontFamily=Architects Daughter;fontSource=https%3A%2F%2Ffonts.googleapis.com%2Fcss%3Ffamily%3DArchitects%2BDaughter;labelBackgroundColor=none;fillColor=#FAE5C7;fontColor=#143642;" parent="Kli5g-zVKuXx6SAsKVRO-47" vertex="1">
          <mxGeometry x="10" y="350" width="40" height="40" as="geometry" />
        </mxCell>
        <mxCell id="Kli5g-zVKuXx6SAsKVRO-87" value="" style="dashed=0;html=1;shape=mxgraph.gmdl.users;strokeColor=#0F8B8D;fillColor=#FAE5C7;strokeWidth=2;shadow=0;sketch=0;html=1;labelPosition=center;verticalLabelPosition=bottom;align=center;verticalAlign=top;hachureGap=4;jiggle=2;curveFitting=1;fontFamily=Architects Daughter;fontSource=https%3A%2F%2Ffonts.googleapis.com%2Fcss%3Ffamily%3DArchitects%2BDaughter;labelBackgroundColor=none;fontColor=#143642;" parent="Kli5g-zVKuXx6SAsKVRO-86" vertex="1">
          <mxGeometry x="12.857142857142856" y="14.285714285714285" width="17.142857142857142" height="11.428571428571427" as="geometry" />
        </mxCell>
        <mxCell id="Kli5g-zVKuXx6SAsKVRO-88" value="" style="shape=ellipse;dashed=0;strokeColor=none;shadow=1;fontSize=13;align=center;verticalAlign=top;labelPosition=center;verticalLabelPosition=bottom;html=1;aspect=fixed;sketch=1;hachureGap=4;jiggle=2;curveFitting=1;fontFamily=Architects Daughter;fontSource=https%3A%2F%2Ffonts.googleapis.com%2Fcss%3Ffamily%3DArchitects%2BDaughter;labelBackgroundColor=none;fillColor=#FAE5C7;fontColor=#143642;" parent="Kli5g-zVKuXx6SAsKVRO-47" vertex="1">
          <mxGeometry x="10" y="390" width="40" height="40" as="geometry" />
        </mxCell>
        <mxCell id="Kli5g-zVKuXx6SAsKVRO-89" value="" style="dashed=0;html=1;shape=mxgraph.gmdl.users;strokeColor=#0F8B8D;fillColor=#FAE5C7;strokeWidth=2;shadow=0;sketch=0;html=1;labelPosition=center;verticalLabelPosition=bottom;align=center;verticalAlign=top;hachureGap=4;jiggle=2;curveFitting=1;fontFamily=Architects Daughter;fontSource=https%3A%2F%2Ffonts.googleapis.com%2Fcss%3Ffamily%3DArchitects%2BDaughter;labelBackgroundColor=none;fontColor=#143642;" parent="Kli5g-zVKuXx6SAsKVRO-88" vertex="1">
          <mxGeometry x="12.857142857142856" y="14.285714285714285" width="17.142857142857142" height="11.428571428571427" as="geometry" />
        </mxCell>
        <mxCell id="Kli5g-zVKuXx6SAsKVRO-90" value="" style="shape=ellipse;dashed=0;strokeColor=none;shadow=1;fontSize=13;align=center;verticalAlign=top;labelPosition=center;verticalLabelPosition=bottom;html=1;aspect=fixed;sketch=1;hachureGap=4;jiggle=2;curveFitting=1;fontFamily=Architects Daughter;fontSource=https%3A%2F%2Ffonts.googleapis.com%2Fcss%3Ffamily%3DArchitects%2BDaughter;labelBackgroundColor=none;fillColor=#FAE5C7;fontColor=#143642;" parent="Kli5g-zVKuXx6SAsKVRO-47" vertex="1">
          <mxGeometry x="10" y="430" width="40" height="40" as="geometry" />
        </mxCell>
        <mxCell id="Kli5g-zVKuXx6SAsKVRO-91" value="" style="dashed=0;html=1;shape=mxgraph.gmdl.users;strokeColor=#0F8B8D;fillColor=#FAE5C7;strokeWidth=2;shadow=0;sketch=0;html=1;labelPosition=center;verticalLabelPosition=bottom;align=center;verticalAlign=top;hachureGap=4;jiggle=2;curveFitting=1;fontFamily=Architects Daughter;fontSource=https%3A%2F%2Ffonts.googleapis.com%2Fcss%3Ffamily%3DArchitects%2BDaughter;labelBackgroundColor=none;fontColor=#143642;" parent="Kli5g-zVKuXx6SAsKVRO-90" vertex="1">
          <mxGeometry x="12.857142857142856" y="14.285714285714285" width="17.142857142857142" height="11.428571428571427" as="geometry" />
        </mxCell>
        <mxCell id="Kli5g-zVKuXx6SAsKVRO-92" value="" style="shape=ellipse;dashed=0;strokeColor=none;shadow=1;fontSize=13;align=center;verticalAlign=top;labelPosition=center;verticalLabelPosition=bottom;html=1;aspect=fixed;sketch=1;hachureGap=4;jiggle=2;curveFitting=1;fontFamily=Architects Daughter;fontSource=https%3A%2F%2Ffonts.googleapis.com%2Fcss%3Ffamily%3DArchitects%2BDaughter;labelBackgroundColor=none;fillColor=#FAE5C7;fontColor=#143642;" parent="Kli5g-zVKuXx6SAsKVRO-47" vertex="1">
          <mxGeometry x="10" y="470" width="40" height="40" as="geometry" />
        </mxCell>
        <mxCell id="Kli5g-zVKuXx6SAsKVRO-93" value="" style="dashed=0;html=1;shape=mxgraph.gmdl.users;strokeColor=#0F8B8D;fillColor=#FAE5C7;strokeWidth=2;shadow=0;sketch=0;html=1;labelPosition=center;verticalLabelPosition=bottom;align=center;verticalAlign=top;hachureGap=4;jiggle=2;curveFitting=1;fontFamily=Architects Daughter;fontSource=https%3A%2F%2Ffonts.googleapis.com%2Fcss%3Ffamily%3DArchitects%2BDaughter;labelBackgroundColor=none;fontColor=#143642;" parent="Kli5g-zVKuXx6SAsKVRO-92" vertex="1">
          <mxGeometry x="12.857142857142856" y="14.285714285714285" width="17.142857142857142" height="11.428571428571427" as="geometry" />
        </mxCell>
        <mxCell id="Kli5g-zVKuXx6SAsKVRO-97" value="Job Profile List" style="html=1;shadow=0;dashed=0;shape=mxgraph.bootstrap.rrect;rSize=5;strokeColor=none;strokeWidth=1;fillColor=#F8F9FA;fontColor=#000000;whiteSpace=wrap;align=center;verticalAlign=middle;spacingLeft=0;fontStyle=1;fontSize=16;spacing=5;sketch=1;jiggle=2;curveFitting=1;spacingRight=10;fontFamily=Architects Daughter;fontSource=https%3A%2F%2Ffonts.googleapis.com%2Fcss%3Ffamily%3DArchitects%2BDaughter;labelBackgroundColor=none;autosize=1;" parent="Kli5g-zVKuXx6SAsKVRO-47" vertex="1">
          <mxGeometry x="20" y="100" width="150" height="40" as="geometry" />
        </mxCell>
        <mxCell id="Kli5g-zVKuXx6SAsKVRO-53" value="" style="shape=ellipse;shadow=1;aspect=fixed;html=1;labelPosition=center;verticalLabelPosition=bottom;align=center;verticalAlign=top;dashed=0;strokeWidth=2;fontFamily=Helvetica;fontSize=12;fontStyle=0;fillColor=#fad7ac;fillStyle=auto;labelBackgroundColor=none;strokeColor=#b46504;sketch=1;curveFitting=1;jiggle=2;" parent="1" vertex="1">
          <mxGeometry x="100" y="200" width="24" height="24" as="geometry" />
        </mxCell>
        <mxCell id="Kli5g-zVKuXx6SAsKVRO-54" value="" style="dashed=0;html=1;shape=mxgraph.gmdl.plus;strokeColor=#b46504;strokeWidth=2;shadow=0;align=left;verticalAlign=top;fontFamily=Helvetica;fontSize=12;fontStyle=0;fillColor=#fad7ac;labelBackgroundColor=none;sketch=1;curveFitting=1;jiggle=2;" parent="Kli5g-zVKuXx6SAsKVRO-53" vertex="1">
          <mxGeometry x="8.57142857142857" y="8.57142857142857" width="6.857142857142856" height="6.857142857142856" as="geometry" />
        </mxCell>
        <mxCell id="uScSTjUP3mG20caRwUuF-1" value="" style="group" vertex="1" connectable="0" parent="1">
          <mxGeometry x="80" y="40" width="960" height="540" as="geometry" />
        </mxCell>
        <mxCell id="6rUPO-moEBOhUERDmNMA-1" value="" style="rounded=0;whiteSpace=wrap;html=1;movable=1;resizable=1;rotatable=1;deletable=1;editable=1;locked=0;connectable=1;strokeWidth=1;perimeterSpacing=0;shadow=1;glass=0;fillColor=#FAE5C7;strokeColor=#0F8B8D;fontColor=#143642;fillStyle=auto;labelBackgroundColor=none;sketch=1;curveFitting=1;jiggle=2;" parent="uScSTjUP3mG20caRwUuF-1" vertex="1">
          <mxGeometry width="960" height="540" as="geometry" />
        </mxCell>
        <mxCell id="Kli5g-zVKuXx6SAsKVRO-95" value="" style="shape=mxgraph.mockup.containers.marginRect;rectMarginTop=10;strokeColor=#666666;strokeWidth=1;dashed=0;rounded=1;arcSize=5;recursiveResize=0;html=1;whiteSpace=wrap;sketch=1;hachureGap=4;jiggle=2;curveFitting=1;fontFamily=Architects Daughter;fontSource=https%3A%2F%2Ffonts.googleapis.com%2Fcss%3Ffamily%3DArchitects%2BDaughter;fontColor=#143642;fillColor=#FAE5C7;align=left;" parent="uScSTjUP3mG20caRwUuF-1" vertex="1">
          <mxGeometry x="210" y="20" width="730" height="500" as="geometry" />
        </mxCell>
        <mxCell id="Kli5g-zVKuXx6SAsKVRO-96" value="Edit Profile" style="shape=rect;strokeWidth=1;dashed=0;rounded=1;arcSize=20;fontSize=21;spacing=2;spacingTop=-2;align=left;autosize=1;spacingLeft=4;resizeWidth=0;resizeHeight=0;perimeter=none;html=1;whiteSpace=wrap;sketch=1;hachureGap=4;jiggle=2;curveFitting=1;fontFamily=Architects Daughter;fontSource=https%3A%2F%2Ffonts.googleapis.com%2Fcss%3Ffamily%3DArchitects%2BDaughter;fillColor=#fa6800;fontColor=#000000;strokeColor=#C73500;fontStyle=1" parent="Kli5g-zVKuXx6SAsKVRO-95" vertex="1">
          <mxGeometry x="5" width="140" height="30" as="geometry" />
        </mxCell>
        <mxCell id="Kli5g-zVKuXx6SAsKVRO-137" value="&lt;font style=&quot;font-size: 14px;&quot;&gt;Add New CVs&lt;/font&gt;" style="labelPosition=center;verticalLabelPosition=middle;align=center;html=1;shape=mxgraph.basic.button;dx=10;whiteSpace=wrap;sketch=1;jiggle=2;curveFitting=1;strokeColor=#b46504;verticalAlign=middle;spacingLeft=10;spacingRight=10;fontFamily=Architects Daughter;fontSource=https%3A%2F%2Ffonts.googleapis.com%2Fcss%3Ffamily%3DArchitects%2BDaughter;fontSize=11;fontColor=default;fontStyle=0;labelBackgroundColor=none;autosize=1;fillColor=#fad7ac;gradientColor=none;" parent="Kli5g-zVKuXx6SAsKVRO-95" vertex="1">
          <mxGeometry x="430" y="410" width="100" height="50" as="geometry" />
        </mxCell>
        <mxCell id="Kli5g-zVKuXx6SAsKVRO-138" value="" style="group" parent="Kli5g-zVKuXx6SAsKVRO-95" vertex="1" connectable="0">
          <mxGeometry x="20" y="90" width="530" height="290" as="geometry" />
        </mxCell>
        <mxCell id="Kli5g-zVKuXx6SAsKVRO-106" value="&lt;font style=&quot;font-weight: normal; font-size: 14px;&quot;&gt;Job Description:&lt;/font&gt;" style="fillColor=#fad7ac;strokeColor=#b46504;html=1;fontSize=11;fontStyle=0;align=center;fontColor=default;fontStyle=1;fontSize=11;sketch=1;jiggle=2;curveFitting=1;verticalAlign=middle;spacingLeft=10;spacingRight=10;fontFamily=Architects Daughter;fontSource=https%3A%2F%2Ffonts.googleapis.com%2Fcss%3Ffamily%3DArchitects%2BDaughter;labelBackgroundColor=none;autosize=1;gradientColor=none;" parent="Kli5g-zVKuXx6SAsKVRO-138" vertex="1">
          <mxGeometry x="55.75" y="1" width="140" height="30" as="geometry" />
        </mxCell>
        <mxCell id="Kli5g-zVKuXx6SAsKVRO-107" value="&lt;div&gt;&lt;br&gt;&lt;/div&gt;" style="rounded=1;arcSize=9;fillColor=#fad7ac;align=left;spacingLeft=50;strokeColor=#b46504;html=1;strokeWidth=2;fontColor=default;fontSize=11;sketch=1;jiggle=2;curveFitting=1;verticalAlign=middle;spacingRight=10;fontFamily=Architects Daughter;fontSource=https%3A%2F%2Ffonts.googleapis.com%2Fcss%3Ffamily%3DArchitects%2BDaughter;fontStyle=1;labelBackgroundColor=none;autosize=1;" parent="Kli5g-zVKuXx6SAsKVRO-138" vertex="1">
          <mxGeometry y="31.071428571428577" width="530" height="258.92857142857144" as="geometry" />
        </mxCell>
        <mxCell id="Kli5g-zVKuXx6SAsKVRO-139" value="" style="group" parent="Kli5g-zVKuXx6SAsKVRO-95" vertex="1" connectable="0">
          <mxGeometry x="20" y="390" width="270" height="70" as="geometry" />
        </mxCell>
        <mxCell id="Kli5g-zVKuXx6SAsKVRO-111" value="Upload (TXT, DOCX, PDF)" style="fillColor=none;strokeColor=none;align=left;fontSize=14;sketch=1;jiggle=2;curveFitting=1;verticalAlign=middle;spacingLeft=50;spacingRight=10;fontFamily=Architects Daughter;fontSource=https%3A%2F%2Ffonts.googleapis.com%2Fcss%3Ffamily%3DArchitects%2BDaughter;fontColor=default;fontStyle=0;labelBackgroundColor=none;autosize=1;" parent="Kli5g-zVKuXx6SAsKVRO-139" vertex="1">
          <mxGeometry width="240" height="30" as="geometry" />
        </mxCell>
        <mxCell id="Kli5g-zVKuXx6SAsKVRO-112" value="Choose File" style="fillColor=#FEFEFE;strokeColor=#AAAAAA;fontSize=14;gradientColor=#F0F0F0;sketch=1;jiggle=2;curveFitting=1;align=left;verticalAlign=middle;spacingLeft=50;spacingRight=10;fontFamily=Architects Daughter;fontSource=https%3A%2F%2Ffonts.googleapis.com%2Fcss%3Ffamily%3DArchitects%2BDaughter;fontColor=default;fontStyle=0;labelBackgroundColor=none;autosize=1;" parent="Kli5g-zVKuXx6SAsKVRO-139" vertex="1">
          <mxGeometry y="35" width="150" height="30" as="geometry" />
        </mxCell>
        <mxCell id="Kli5g-zVKuXx6SAsKVRO-113" value="No file chosen" style="fillColor=none;strokeColor=none;align=left;fontSize=14;spacing=5;sketch=1;jiggle=2;curveFitting=1;verticalAlign=middle;spacingLeft=50;spacingRight=10;fontFamily=Architects Daughter;fontSource=https%3A%2F%2Ffonts.googleapis.com%2Fcss%3Ffamily%3DArchitects%2BDaughter;fontColor=default;fontStyle=0;labelBackgroundColor=none;autosize=1;" parent="Kli5g-zVKuXx6SAsKVRO-139" vertex="1">
          <mxGeometry x="90" y="30" width="180" height="40" as="geometry" />
        </mxCell>
        <mxCell id="Kli5g-zVKuXx6SAsKVRO-140" value="" style="group" parent="Kli5g-zVKuXx6SAsKVRO-95" vertex="1" connectable="0">
          <mxGeometry x="10" y="40" width="400" height="30" as="geometry" />
        </mxCell>
        <mxCell id="Kli5g-zVKuXx6SAsKVRO-105" value="&lt;div&gt;&lt;br&gt;&lt;/div&gt;" style="rounded=1;arcSize=9;align=center;spacingLeft=10;strokeColor=#b46504;html=1;strokeWidth=2;fontSize=11;sketch=1;jiggle=2;curveFitting=1;verticalAlign=middle;spacingRight=10;fontFamily=Architects Daughter;fontSource=https%3A%2F%2Ffonts.googleapis.com%2Fcss%3Ffamily%3DArchitects%2BDaughter;fontStyle=0;labelBackgroundColor=none;autosize=1;fillColor=#fad7ac;fontColor=default;gradientColor=none;" parent="Kli5g-zVKuXx6SAsKVRO-140" vertex="1">
          <mxGeometry x="150" width="250" height="30" as="geometry" />
        </mxCell>
        <mxCell id="Kli5g-zVKuXx6SAsKVRO-104" value="&lt;font style=&quot;font-size: 12px;&quot;&gt;Profile n&lt;span style=&quot;background-color: transparent; color: light-dark(rgb(0, 0, 0), rgb(255, 255, 255));&quot;&gt;ame:&lt;/span&gt;&lt;/font&gt;" style="fillColor=#fad7ac;strokeColor=#b46504;html=1;fontSize=11;fontStyle=0;align=center;fontStyle=1;fontSize=11;sketch=1;jiggle=2;curveFitting=1;verticalAlign=middle;spacingLeft=10;spacingRight=10;fontFamily=Architects Daughter;fontSource=https%3A%2F%2Ffonts.googleapis.com%2Fcss%3Ffamily%3DArchitects%2BDaughter;labelBackgroundColor=none;autosize=1;fontColor=default;gradientColor=none;" parent="Kli5g-zVKuXx6SAsKVRO-140" vertex="1">
          <mxGeometry width="150" height="30" as="geometry" />
        </mxCell>
        <mxCell id="Kli5g-zVKuXx6SAsKVRO-141" value="&lt;font style=&quot;font-size: 14px;&quot;&gt;Done&lt;/font&gt;" style="labelPosition=center;verticalLabelPosition=middle;align=center;html=1;shape=mxgraph.basic.button;dx=10;whiteSpace=wrap;sketch=1;jiggle=2;curveFitting=1;strokeColor=#b46504;verticalAlign=middle;spacingLeft=10;spacingRight=10;fontFamily=Architects Daughter;fontSource=https%3A%2F%2Ffonts.googleapis.com%2Fcss%3Ffamily%3DArchitects%2BDaughter;fontSize=11;fontColor=default;fontStyle=0;labelBackgroundColor=none;autosize=1;fillColor=#fad7ac;gradientColor=none;" parent="Kli5g-zVKuXx6SAsKVRO-95" vertex="1">
          <mxGeometry x="560" y="410" width="100" height="50" as="geometry" />
        </mxCell>
      </root>
    </mxGraphModel>
  </diagram>
</mxfile>
